<svg width="93" height="96" viewBox="0 0 93 96" fill="none" xmlns="http://www.w3.org/2000/svg">
<g filter="url(#filter0_d_1_9137)">
<path d="M51.1399 53.4583H41.8577C34.2049 53.4583 28 47.0036 28 39.0429V29.3871C28 21.4263 34.2049 14.9717 41.8577 14.9717H51.1423C58.7951 14.9717 65 21.4263 65 29.3871V39.0454C64.9976 47.0061 58.7951 53.4583 51.1399 53.4583Z" fill="url(#paint0_linear_1_9137)"/>
</g>
<path d="M56.2039 30.6686C55.2056 29.7328 53.9144 29.2074 52.5874 29.1825C51.3111 26.7576 48.7825 25.2497 46.1015 25.3865C43.4923 25.5171 41.2177 27.1244 40.1178 29.5494C39.4872 29.4966 38.728 29.5556 37.9419 29.9007C36.1725 30.6748 34.9621 32.6801 35.0009 34.7756C35.0457 37.2223 36.8839 39.4265 39.3706 40.0204L39.4633 40.0421H39.5589C39.8309 40.0452 40.1029 40.0452 40.3779 40.0483L42.234 38.1954C41.3821 38.1954 40.5303 38.1923 39.6845 38.1799C38.0346 37.7477 36.8271 36.3145 36.7972 34.7414C36.7763 33.6004 37.401 32.164 38.6384 31.6231C39.3377 31.3184 40.0252 31.3837 40.4795 31.4925L41.2656 31.6821L41.5316 30.8894C42.225 28.8188 44.099 27.3576 46.1942 27.2488C48.3372 27.14 50.3607 28.4519 51.2215 30.5101L51.4815 31.1319L52.1301 31.0666C53.1762 30.9609 54.2253 31.3215 55.0083 32.0552C55.7496 32.7516 56.18 33.7061 56.186 34.673C56.1979 36.5539 54.7184 38.0524 52.7368 38.1736C52.0524 38.1643 51.3619 38.1612 50.6715 38.1581L52.5515 40.0359C52.6143 40.0359 52.68 40.0359 52.7458 40.039H52.7757H52.8055C55.7257 39.8805 58.0002 37.5177 57.9823 34.6605C57.9643 33.1682 57.3187 31.7132 56.2039 30.6686Z" fill="white"/>
<path d="M51.4697 40.0304L46.4902 35.0498L41.5078 40.0304H44.6162V43.0678H48.3613V40.0304H51.4697Z" fill="white"/>
<defs>
<filter id="filter0_d_1_9137" x="0" y="0.97168" width="93" height="94.4863" filterUnits="userSpaceOnUse" color-interpolation-filters="sRGB">
<feFlood flood-opacity="0" result="BackgroundImageFix"/>
<feColorMatrix in="SourceAlpha" type="matrix" values="0 0 0 0 0 0 0 0 0 0 0 0 0 0 0 0 0 0 127 0" result="hardAlpha"/>
<feOffset dy="14"/>
<feGaussianBlur stdDeviation="14"/>
<feComposite in2="hardAlpha" operator="out"/>
<feColorMatrix type="matrix" values="0 0 0 0 0 0 0 0 0 0 0 0 0 0 0 0 0 0 0.35 0"/>
<feBlend mode="normal" in2="BackgroundImageFix" result="effect1_dropShadow_1_9137"/>
<feBlend mode="normal" in="SourceGraphic" in2="effect1_dropShadow_1_9137" result="shape"/>
</filter>
<linearGradient id="paint0_linear_1_9137" x1="30.3034" y1="15.0064" x2="62.4102" y2="54.9135" gradientUnits="userSpaceOnUse">
<stop stop-color="#38A2CF"/>
<stop offset="1" stop-color="#52C9CE"/>
</linearGradient>
</defs>
</svg>
